<svg xmlns="http://www.w3.org/2000/svg" version="1.1" xmlns:xlink="http://www.w3.org/1999/xlink" xmlns:svgjs="http://svgjs.dev/svgjs" width="100%" height="100%" viewBox="0 0 1000 600"><rect width="1000" height="600" x="0" y="0" fill="#2b3252"/><g><circle r="166.66666666666666" cx="375.36916605631507" cy="397.591404354425" fill="#fad744" transform="matrix(0.5989386751758089,0,0,0.5989386751758088,0,61.8671393854123)"/><path d="M347.7548233888049 472.59141208692193L326.6425566067932 472.59141208692193L326.6425566067932 322.5914073284637L424.0957821515296 322.5914073284637L424.0957821515296 340.803466118264L347.7548233888049 340.803466118264L347.7548233888049 386.36479812493917L424.0957821515296 386.36479812493917L424.0957821515296 404.54567188256516L347.7548233888049 404.54567188256516L347.7548233888049 472.59141208692193Z " fill="#2b3252" transform="matrix(0.5989386751758089,0,0,0.5989386751758088,0,61.8671393854123)"/><path d="M684.9164671619774 470.0957556771087L625.3691687556927 470.0957556771087L625.3691687556927 330.51363806783525L681.5792647659136 330.51363806783525Q696.8433383339964 330.51363806783525 706.3326007993254 335.5339512375659Q715.8508824159245 340.5542644072965 720.348850862793 348.3894352502287Q724.8178001583915 356.2246060931609 724.8178001583915 365.22054298689784L724.8178001583915 365.22054298689784Q724.8178001583915 373.5780585526922 721.074329644546 381.70342090832554Q717.3018399794305 389.85780241522906 710.1921479182513 395.92280503068395L710.1921479182513 395.92280503068395Q720.6390423754942 401.3493863181963 725.7754321503053 410.66453387590457Q730.8828027738464 419.9506622823427 730.8828027738464 429.99128862180396L730.8828027738464 429.99128862180396Q730.8828027738464 440.0028958099951 725.7754321503053 449.2019667626229Q720.6390423754942 458.40103771525065 710.4243011284123 464.2338871205446Q700.1805407300601 470.0957556771087 684.9164671619774 470.0957556771087L684.9164671619774 470.0957556771087ZM645.0151341655635 347.02553514053307L645.0151341655635 390.29308968428086L683.6686436573623 390.29308968428086Q694.318672173496 390.29308968428086 699.6581960071981 383.58966574088333Q704.9687006896298 376.9152609487559 704.9687006896298 368.9640135007432L704.9687006896298 368.9640135007432Q704.9687006896298 363.53743221323094 702.58913028548 358.5171190435003Q700.1805407300601 353.4968058737697 695.4794382243008 350.27568008278644Q690.7783357185415 347.02553514053307 683.6686436573623 347.02553514053307L683.6686436573623 347.02553514053307L645.0151341655635 347.02553514053307ZM645.0151341655635 405.73127815998424L645.0151341655635 453.58385860441086L687.005846053426 453.58385860441086Q694.7539594425479 453.58385860441086 699.9774066711693 450.04352214945635Q705.2008538997908 446.47416654323166 707.8996349679119 440.960527801909Q710.627435187303 435.41786990931627 710.627435187303 429.3528672938613L710.627435187303 429.3528672938613Q710.627435187303 423.28786467840644 708.0157115729924 417.9773599959746Q705.4039879586817 412.63783616227266 700.0644641249796 409.18455716112845Q694.7539594425479 405.73127815998424 686.8027119945352 405.73127815998424L686.8027119945352 405.73127815998424L645.0151341655635 405.73127815998424ZM771.0162889804212 470.0957556771087L753.4597024619991 470.0957556771087L753.4597024619991 366.468366491513L766.1991098695814 366.468366491513L771.8288252159846 385.6790446323319Q777.2844256547669 376.2768396208133 786.570554061205 370.53104766932967Q795.8566824676432 364.78525571784604 808.8282430853865 364.78525571784604L808.8282430853865 364.78525571784604L808.8282430853865 382.9802635642108Q807.3482663706104 382.9802635642108 805.7812322020241 382.9802635642108Q804.2141980334375 382.9802635642108 802.7632404699316 383.18339762310165L802.7632404699316 383.18339762310165Q785.0035198926187 384.6343551866076 778.00990443652 395.5165369129023Q771.0162889804212 406.3696994879269 771.0162889804212 425.5803776287458L771.0162889804212 425.5803776287458L771.0162889804212 470.0957556771087ZM868.5786755505621 472.591402686339L868.5786755505621 472.591402686339Q852.2699125367551 472.591402686339 841.0104818439488 465.3946531713494Q829.7220319998723 458.19790365635987 823.7731059894979 445.9518218203695Q817.7951608278534 433.7347591356493 817.7951608278534 418.49970471883677L817.7951608278534 418.49970471883677Q817.7951608278534 401.9878076461389 824.498584771251 389.97387902030954Q831.1729895633785 377.9599503944802 842.5775160125352 371.3726030561631Q853.9530233104219 364.78525571784604 868.1724074327803 364.78525571784604L868.1724074327803 364.78525571784604Q880.476527571311 364.78525571784604 889.8787325828296 369.6894922824962Q899.2809375943482 374.62274799841646 905.4620168148836 382.86418695913034Q911.6140768841487 391.10562591984416 914.4289345573504 401.5525203770871Q917.2728113818221 411.99941483433 916.4312559949885 423.0847306195156L916.4312559949885 423.0847306195156L836.5995708508906 423.0847306195156Q837.0348581199423 436.0272720859887 842.3453628023742 443.57225141621973Q847.6848866360763 451.08821159518067 854.9977127561463 454.106203327273Q862.3105388762162 457.15321421063555 868.5786755505621 457.15321421063555L868.5786755505621 457.15321421063555Q877.342459234138 457.15321421063555 883.3204043957826 454.30933738616386Q889.269330406157 451.49447971296235 892.8096668611115 446.90945381228346L892.8096668611115 446.90945381228346L909.7278320515911 451.9297669820141Q904.098116705188 460.89668472448096 893.651222247945 466.758553281045Q883.2043277907021 472.591402686339 868.5786755505621 472.591402686339ZM836.8317240610515 409.0974997073181L836.8317240610515 409.0974997073181L897.8299800308423 409.0974997073181Q897.8299800308423 401.78467358724805 894.1735669708071 395.0812496438505Q890.5171539107721 388.4068448517231 883.9298065724552 384.11201046374543Q877.342459234138 379.8461952270379 868.1724074327803 379.8461952270379L868.1724074327803 379.8461952270379Q860.4242940436586 379.8461952270379 853.5467551926401 382.74811035404986Q846.640197190352 385.6790446323319 842.1422287434834 392.1503153655685Q837.6442602966149 398.6506052500752 836.8317240610515 409.0974997073181ZM966.1410621207028 472.591402686339L966.1410621207028 472.591402686339Q956.3325889914026 472.591402686339 948.1782074844991 469.0510662313844Q940.0238259775956 465.51072977642986 935.235666018026 458.80730583303233Q930.4184869071862 452.1329010409049 930.4184869071862 442.7306960293863L930.4184869071862 442.7306960293863Q930.4184869071862 430.39755673958564 939.0952131369518 423.28786467840644Q947.7719393667173 416.1781726172272 963.5293385063922 412.31862549830134Q979.3157567973369 408.4590783793755 1000.4126797707138 406.1665654290361L1000.4126797707138 406.1665654290361Q1000.8479670397655 392.99187075240195 995.1892325420922 385.88217869122275Q989.5595171956891 378.80150578131367 977.0232438469975 378.80150578131367L977.0232438469975 378.80150578131367Q967.6210388354789 378.80150578131367 961.6721128251045 383.0673210180212Q955.6941676634599 387.3621554059988 954.0400760410632 394.8781155849597L954.0400760410632 394.8781155849597L937.1219108505836 389.85780241522906Q941.3006686334809 377.9599503944802 952.0377546034249 371.3726030561631Q962.8038597246391 364.78525571784604 976.8201097881067 364.78525571784604L976.8201097881067 364.78525571784604Q998.3233008792652 364.78525571784604 1008.2478506136458 374.91293951111766Q1018.1724003480267 385.0696424556594 1018.1724003480267 406.77596760570856L1018.1724003480267 406.77596760570856L1018.1724003480267 431.0359780675282Q1018.1724003480267 443.9785195340014 1019.217089793751 453.3807245455201Q1020.2617792394753 462.78292955703864 1021.7417559542514 470.0957556771087L1021.7417559542514 470.0957556771087L1005.6361269993351 470.0957556771087L1001.4573692164379 455.8763715547503Q996.872343315759 463.6244849438721 988.311693691074 468.12245339074065Q979.7220249151187 472.591402686339 966.1410621207028 472.591402686339ZM969.9135517858183 458.6041717741415L969.9135517858183 458.6041717741415Q978.0679332927218 458.6041717741415 985.3807594127918 455.6732374958595Q992.693585532862 452.74230321757744 997.2786114335408 445.7486877614787Q1001.8926564854896 438.75507230537994 1001.8926564854896 426.6250670744701L1001.8926564854896 426.6250670744701L1001.8926564854896 420.15379634123354Q985.9901615894644 421.8369071149005 974.2954436276063 424.24549667032034Q962.6007256657483 426.6250670744701 956.2165123863222 430.91990146244774Q949.861318258166 435.2147358504254 949.861318258166 442.2954087603345L949.861318258166 442.2954087603345Q949.861318258166 449.60823488040455 955.1718229405978 454.106203327273Q960.5113467742997 458.6041717741415 969.9135517858183 458.6041717741415ZM1064.5740232289472 470.0957556771087L1047.017436710525 470.0957556771087L1047.017436710525 330.51363806783525L1064.5740232289472 330.51363806783525L1064.5740232289472 413.04410428005434L1106.361601057919 366.468366491513L1127.4585240312956 366.468366491513L1088.369727270445 409.30063376620893L1132.681971259917 470.0957556771087L1111.1497610174886 470.0957556771087L1076.675009308587 422.2431752326821L1064.5740232289472 435.41786990931627L1064.5740232289472 470.0957556771087ZM1172.9895723741126 470.0957556771087L1155.4620050069607 470.0957556771087L1155.4620050069607 380.45559740371044L1137.9054184885385 380.45559740371044L1137.9054184885385 366.468366491513L1155.4620050069607 366.468366491513L1155.4620050069607 351.00115886453943Q1155.4620050069607 340.35113034840566 1157.5513838984093 334.08299367405994Q1159.640762789858 327.81485699971415 1165.6767462540427 325.2031333854034Q1171.7417488694975 322.5914097710927 1183.2333327724648 322.5914097710927L1183.2333327724648 322.5914097710927L1194.521782616541 322.5914097710927L1194.521782616541 337.4201960701236L1183.6686200415165 337.4201960701236Q1176.965196098119 337.4201960701236 1174.991893811751 340.1479962895148Q1172.9895723741126 342.8467773576359 1172.9895723741126 350.7980248056486L1172.9895723741126 350.7980248056486L1172.9895723741126 366.468366491513L1194.521782616541 366.468366491513L1194.521782616541 380.45559740371044L1172.9895723741126 380.45559740371044L1172.9895723741126 470.0957556771087ZM1236.9477817734555 472.591402686339L1236.9477817734555 472.591402686339Q1227.110289492885 472.591402686339 1218.9559079859816 469.0510662313844Q1210.830545630348 465.51072977642986 1206.0133665195083 458.80730583303233Q1201.1961874086685 452.1329010409049 1201.1961874086685 442.7306960293863L1201.1961874086685 442.7306960293863Q1201.1961874086685 430.39755673958564 1209.872913638434 423.28786467840644Q1218.5496398681998 416.1781726172272 1234.3360581591448 412.31862549830134Q1250.0934572988197 408.4590783793755 1271.190380272196 406.1665654290361L1271.190380272196 406.1665654290361Q1271.625667541248 392.99187075240195 1265.9669330435747 385.88217869122275Q1260.3372176971716 378.80150578131367 1247.80094434848 378.80150578131367L1247.80094434848 378.80150578131367Q1238.3987393369614 378.80150578131367 1232.449813326587 383.0673210180212Q1226.5008873162126 387.3621554059988 1224.8177765425455 394.8781155849597L1224.8177765425455 394.8781155849597L1207.8996113520661 389.85780241522906Q1212.0783691349634 377.9599503944802 1222.8444742561776 371.3726030561631Q1233.5815602261216 364.78525571784604 1247.5978102895892 364.78525571784604L1247.5978102895892 364.78525571784604Q1269.1010013807477 364.78525571784604 1279.0255511151283 374.91293951111766Q1288.9501008495092 385.0696424556594 1288.9501008495092 406.77596760570856L1288.9501008495092 406.77596760570856L1288.9501008495092 431.0359780675282Q1288.9501008495092 443.9785195340014 1289.9947902952333 453.3807245455201Q1291.0394797409579 462.78292955703864 1292.519456455734 470.0957556771087L1292.519456455734 470.0957556771087L1276.4138275008177 470.0957556771087L1272.2350697179204 455.8763715547503Q1267.6500438172418 463.6244849438721 1259.0893941925565 468.12245339074065Q1250.5287445678712 472.591402686339 1236.9477817734555 472.591402686339ZM1240.6912522873008 458.6041717741415L1240.6912522873008 458.6041717741415Q1248.8456337942043 458.6041717741415 1256.1584599142745 455.6732374958595Q1263.4712860343445 452.74230321757744 1268.0563119350234 445.7486877614787Q1272.6703569869721 438.75507230537994 1272.6703569869721 426.6250670744701L1272.6703569869721 426.6250670744701L1272.6703569869721 420.15379634123354Q1256.796881242217 421.8369071149005 1245.0731441290889 424.24549667032034Q1233.3784261672308 426.6250670744701 1227.0232320390746 430.91990146244774Q1220.6390187596485 435.2147358504254 1220.6390187596485 442.2954087603345L1220.6390187596485 442.2954087603345Q1220.6390187596485 449.60823488040455 1225.9785425933503 454.106203327273Q1231.2890472757822 458.6041717741415 1240.6912522873008 458.6041717741415ZM1353.1114443077429 472.591402686339L1353.1114443077429 472.591402686339Q1344.1155074140058 472.591402686339 1335.43878118424 469.7765450131374Q1326.7910741057447 466.96168733993585 1320.0005927085367 461.2158953884522Q1313.2101113113288 455.4701034369686 1309.640755705104 446.7063197533926L1309.640755705104 446.7063197533926L1326.5589208955837 440.43818307904684Q1328.8804529971933 449.60823488040455 1336.7156238401255 453.69993520949134Q1344.5507946830578 457.762616387308 1353.1114443077429 457.762616387308L1353.1114443077429 457.762616387308Q1359.3795809820886 457.762616387308 1364.9222388746814 455.8763715547503Q1370.435877616004 454.01914587346266 1374.0052332222288 450.44979026723803Q1377.545569677183 446.90945381228346 1377.545569677183 442.2954087603345L1377.545569677183 442.2954087603345Q1377.545569677183 433.7347591356493 1370.7550882799753 430.1944226806948Q1363.9646068827674 426.6250670744701 1354.5624018712485 424.7678413931825L1354.5624018712485 424.7678413931825L1340.1398836899996 421.8369071149005Q1332.6239235110386 420.15379634123354 1326.1526527778021 417.13580460914113Q1319.6813820445652 414.0887937257786 1315.705758320559 408.4590783793755Q1311.7301345965527 402.82936303297237 1311.7301345965527 393.42715802145375L1311.7301345965527 393.42715802145375Q1311.7301345965527 384.0249530099351 1317.5920031531168 377.64073973050887Q1323.424852558411 371.2565264510826 1332.5368660572283 367.91932405501893Q1341.6198604047756 364.5821216589552 1351.6314675929668 364.5821216589552L1351.6314675929668 364.5821216589552Q1363.9646068827674 364.5821216589552 1374.9338460628724 369.6894922824962Q1385.9030852429776 374.8258820573073 1390.5171302949263 385.6790446323319L1390.5171302949263 385.6790446323319L1374.0052332222288 391.7440472477868Q1371.2774330028374 385.47591057344107 1364.4869516056294 382.45791884134866Q1357.6964702084217 379.4109079579861 1350.3836440883517 379.4109079579861L1350.3836440883517 379.4109079579861Q1342.461415791609 379.4109079579861 1335.9611259071023 382.9802635642108Q1329.4898551738659 386.52060001916533 1329.4898551738659 393.1950048112928L1329.4898551738659 393.1950048112928Q1329.4898551738659 399.8984287546903 1335.0325130664585 402.9164204867827Q1340.5751709590513 405.9634313701452 1348.7295524659546 407.61752299254204L1348.7295524659546 407.61752299254204L1362.3105152603705 410.34532321193325Q1370.668030826165 411.99941483433 1378.1839910051256 415.1334831715029Q1385.6999511840866 418.2675515086758 1390.5171302949263 424.4486307292112Q1395.3052902544962 430.6006907984765 1395.3052902544962 441.686006583662L1395.3052902544962 441.686006583662Q1395.3052902544962 451.49447971296235 1389.2402876390413 458.40103771525065Q1383.2043041748564 465.27857656626895 1373.5699459531768 468.93498962630395Q1363.9646068827674 472.591402686339 1353.1114443077429 472.591402686339ZM1460.9175912762355 470.0957556771087L1447.7428965996016 470.0957556771087Q1437.9344234703012 470.0957556771087 1432.5948996365994 468.12245339074065Q1427.2843949541675 466.1201319531024 1425.2820735165294 460.4904166066993Q1423.308771230161 454.831682109026 1423.308771230161 444.18165359289225L1423.308771230161 444.18165359289225L1423.308771230161 380.45559740371044L1405.752184711739 380.45559740371044L1405.752184711739 366.468366491513L1423.308771230161 366.468366491513L1423.308771230161 340.35113034840566L1440.8653577485832 340.35113034840566L1440.8653577485832 366.468366491513L1460.9175912762355 366.468366491513L1460.9175912762355 380.45559740371044L1440.8653577485832 380.45559740371044L1440.8653577485832 441.2507193146102Q1440.8653577485832 449.2019667626229 1442.4323919171695 451.9297669820141Q1443.999426085756 454.6285480501352 1451.515386264717 454.6285480501352L1451.515386264717 454.6285480501352L1460.9175912762355 454.6285480501352L1460.9175912762355 470.0957556771087Z " fill="#fad744" transform="matrix(0.5989386751758089,0,0,0.5989386751758088,0,61.8671393854123)"/></g></svg>